# This file uses centimeters as units for non-parametric coordinates.

mtllib FloorPlane.mtl
g default
v -223.123401 -0.000000 223.123401
v -178.498724 -0.000000 223.123401
v -133.874046 -0.000000 223.123401
v -89.249355 -0.000000 223.123401
v -44.624678 -0.000000 223.123401
v 0.000000 -0.000000 223.123401
v 44.624691 -0.000000 223.123401
v 89.249355 -0.000000 223.123401
v 133.874046 -0.000000 223.123401
v 178.498737 -0.000000 223.123401
v 223.123401 -0.000000 223.123401
v -223.123401 -0.000000 178.498724
v -178.498724 -0.000000 178.498724
v -133.874046 -0.000000 178.498724
v -89.249355 -0.000000 178.498724
v -44.624678 -0.000000 178.498724
v 0.000000 -0.000000 178.498724
v 44.624691 -0.000000 178.498724
v 89.249355 -0.000000 178.498724
v 133.874046 -0.000000 178.498724
v 178.498737 -0.000000 178.498724
v 223.123401 -0.000000 178.498724
v -223.123401 -0.000000 133.874046
v -178.498724 -0.000000 133.874046
v -133.874046 -0.000000 133.874046
v -89.249355 -0.000000 133.874046
v -44.624678 -0.000000 133.874046
v 0.000000 -0.000000 133.874046
v 44.624691 -0.000000 133.874073
v 89.249355 -0.000000 133.874046
v 133.874046 -0.000000 133.874046
v 178.498737 -0.000000 133.874046
v 223.123401 -0.000000 133.874046
v -223.123401 -0.000000 89.249355
v -178.498724 -0.000000 89.249355
v -133.874046 -0.000000 89.249355
v -89.249355 -0.000000 89.249355
v -44.624678 -0.000000 89.249355
v 0.000000 -0.000000 89.249355
v 44.624691 -0.000000 89.249355
v 89.249355 -0.000000 89.249355
v 133.874046 -0.000000 89.249355
v 178.498737 -0.000000 89.249355
v 223.123401 -0.000000 89.249355
v -223.123401 -0.000000 44.624678
v -178.498724 -0.000000 44.624678
v -133.874046 -0.000000 44.624678
v -89.249355 -0.000000 44.624678
v -44.624678 -0.000000 44.624678
v 0.234358 -0.000000 44.624678
v 44.624691 -0.000000 44.624678
v 89.249355 -0.000000 44.624678
v 133.874046 -0.000000 44.624678
v 178.498737 -0.000000 44.624678
v 223.123401 -0.000000 44.624678
v -223.123401 0.000000 0.000000
v -178.498724 0.000000 0.000000
v -133.874046 0.000000 0.000000
v -89.249355 0.000000 0.000000
v -44.624678 0.000000 0.000000
v 0.000000 0.000000 0.693036
v 44.624691 0.000000 0.000002
v 89.249355 0.000000 0.000000
v 133.874046 0.000000 0.000000
v 178.498737 0.000000 0.000000
v 223.123401 0.000000 0.000000
v -223.123401 0.000000 -44.624691
v -178.498724 0.000000 -44.624691
v -133.874046 0.000000 -44.624691
v -89.249355 0.000000 -44.624691
v -44.624678 0.000000 -44.624691
v 0.000000 0.000000 -44.624691
v 44.624691 0.000000 -44.624691
v 89.249355 0.000000 -44.624691
v 133.874046 0.000000 -44.624691
v 178.498737 0.000000 -44.624691
v 223.123401 0.000000 -44.624691
v -223.123401 0.000000 -89.249355
v -178.498724 0.000000 -89.249355
v -133.874046 0.000000 -89.249355
v -89.249355 0.000000 -89.249355
v -44.624678 0.000000 -89.249355
v 0.000000 0.000000 -89.249355
v 44.624691 0.000000 -89.249355
v 89.249355 0.000000 -89.249355
v 133.874046 0.000000 -89.249355
v 178.498737 0.000000 -89.249355
v 223.123401 0.000000 -89.249355
v -223.123401 0.000000 -133.874046
v -178.498724 0.000000 -133.874046
v -133.874046 0.000000 -133.874046
v -89.249355 0.000000 -133.874046
v -44.624678 0.000000 -133.874046
v 0.000000 0.000000 -133.874046
v 44.624691 0.000000 -133.874046
v 89.249355 0.000000 -133.874046
v 133.874046 0.000000 -133.874046
v 178.498737 0.000000 -133.874046
v 223.123401 0.000000 -133.874046
v -223.123401 0.000000 -178.498737
v -178.498724 0.000000 -178.498737
v -133.874046 0.000000 -178.498737
v -89.249355 0.000000 -178.498737
v -44.624678 0.000000 -178.498737
v 0.000000 0.000000 -178.498737
v 44.624691 0.000000 -178.498737
v 89.249355 0.000000 -178.498737
v 133.874046 0.000000 -178.498737
v 178.498737 0.000000 -178.498737
v 223.123401 0.000000 -178.498737
v -223.123401 0.000000 -223.123401
v -178.498724 0.000000 -223.123401
v -133.874046 0.000000 -223.123401
v -89.249355 0.000000 -223.123401
v -44.624678 0.000000 -223.123401
v 0.000000 0.000000 -223.123401
v 44.624691 0.000000 -223.123401
v 89.249355 0.000000 -223.123401
v 133.874046 0.000000 -223.123401
v 178.498737 0.000000 -223.123401
v 223.123401 0.000000 -223.123401
v -22.312339 -0.000000 66.937016
v -22.312339 -0.000000 89.249355
v 0.165863 -0.000000 64.229707
v -22.312339 -0.000000 44.624678
v -44.624678 -0.000000 66.937016
v 22.312345 -0.000000 66.937016
v 22.312345 -0.000000 89.249355
v 44.624691 -0.000000 66.937016
v 22.312345 -0.000000 44.624678
v -22.312339 -0.000000 22.312339
v 0.175736 -0.000002 22.312339
v -22.312339 0.000000 0.000000
v -44.624678 -0.000000 22.312339
v 22.312345 -0.000000 22.312339
v 44.624691 -0.000000 22.312339
v 22.312345 0.000000 0.000000
v -33.468508 -0.000000 78.093182
v -44.624678 -0.000000 78.093182
v -33.468508 -0.000000 89.249355
v -22.312339 -0.000000 78.093182
v -33.468508 -0.000000 66.937010
v 11.156173 -0.000000 78.093182
v 0.000001 -0.000000 78.093182
v 11.156173 -0.000000 89.249355
v 22.312345 -0.000000 78.093182
v 12.340573 -0.000000 64.262955
v -33.468508 -0.000000 33.468508
v -44.624678 -0.000000 33.468508
v -33.468508 -0.000000 44.624678
v -22.312337 -0.000000 33.468508
v -33.468508 -0.000000 22.312339
v 12.374897 -0.000000 17.696082
v 0.351188 -0.000002 33.234968
v 12.225605 -0.000000 44.624678
v 22.312345 -0.000000 33.468508
v 14.198659 -0.000000 17.737791
v -11.156169 -0.000000 78.093182
v -11.156169 -0.000000 89.249355
v -11.156169 -0.000000 66.937016
v -11.156169 -0.000000 55.780844
v 0.183085 -0.000000 55.780844
v -11.156169 -0.000000 44.624678
v -22.312339 -0.000000 55.780844
v -33.468508 -0.000000 55.780844
v -44.624678 -0.000000 55.780847
v 33.468518 -0.000000 78.093182
v 33.468518 -0.000000 89.249355
v 44.624691 -0.000000 78.093182
v 33.468518 -0.000000 66.937016
v 33.468518 -0.000000 55.780844
v 44.624691 -0.000000 55.780847
v 33.468518 -0.000000 44.624678
v 22.312345 -0.000000 55.780844
v 12.213889 -0.000000 55.780844
v -11.156169 -0.000002 33.468508
v -11.156169 -0.000002 22.312339
v -11.156169 -0.000000 11.156169
v 0.260559 -0.000000 11.156169
v -11.156169 0.000000 0.000000
v -22.312339 -0.000000 11.156169
v -33.468508 -0.000000 11.156169
v -33.468508 0.000000 0.000000
v -44.624678 -0.000000 11.156169
v 33.468518 -0.000000 33.468508
v 44.624691 -0.000000 33.468508
v 33.468518 -0.000000 22.312339
v 33.468518 -0.000000 11.156169
v 44.624691 -0.000000 11.156169
v 33.468518 0.000000 0.000000
v 22.312345 -0.000000 11.156169
v 14.223822 -0.000000 7.646741
v 4.297307 0.000000 7.668698
v 21.156745 0.000000 -10.603363
v 4.246631 0.000000 0.750827
v 12.689656 0.000000 3.770393
v 27.890432 0.000000 0.000000
v 39.046605 0.000000 0.000001
v 44.624691 0.000000 -22.312345
v 22.312345 0.000000 -44.624691
v 0.000000 0.000000 -18.569817
vt 0.000000 0.000000
vt 0.100000 0.000000
vt 0.200000 0.000000
vt 0.300000 0.000000
vt 0.400000 0.000000
vt 0.500000 0.000000
vt 0.600000 0.000000
vt 0.700000 0.000000
vt 0.800000 0.000000
vt 0.900000 0.000000
vt 1.000000 0.000000
vt 0.000000 0.100000
vt 0.100000 0.100000
vt 0.200000 0.100000
vt 0.300000 0.100000
vt 0.400000 0.100000
vt 0.500000 0.100000
vt 0.600000 0.100000
vt 0.700000 0.100000
vt 0.800000 0.100000
vt 0.900000 0.100000
vt 1.000000 0.100000
vt 0.000000 0.200000
vt 0.100000 0.200000
vt 0.200000 0.200000
vt 0.300000 0.200000
vt 0.400000 0.200000
vt 0.500000 0.200000
vt 0.600000 0.200000
vt 0.700000 0.200000
vt 0.800000 0.200000
vt 0.900000 0.200000
vt 1.000000 0.200000
vt 0.000000 0.300000
vt 0.100000 0.300000
vt 0.200000 0.300000
vt 0.300000 0.300000
vt 0.421875 0.321875
vt 0.500000 0.318750
vt 0.578125 0.321875
vt 0.700000 0.300000
vt 0.800000 0.300000
vt 0.900000 0.300000
vt 1.000000 0.300000
vt 0.000000 0.400000
vt 0.100000 0.400000
vt 0.200000 0.400000
vt 0.300000 0.400000
vt 0.418750 0.400000
vt 0.500000 0.400000
vt 0.581250 0.400000
vt 0.700000 0.400000
vt 0.800000 0.400000
vt 0.900000 0.400000
vt 1.000000 0.400000
vt 0.000000 0.500000
vt 0.100000 0.500000
vt 0.200000 0.500000
vt 0.300000 0.500000
vt 0.421875 0.478125
vt 0.500000 0.481250
vt 0.549095 0.520002
vt 0.700000 0.500000
vt 0.800000 0.500000
vt 0.900000 0.500000
vt 1.000000 0.500000
vt 0.000000 0.600000
vt 0.100000 0.600000
vt 0.200000 0.600000
vt 0.300000 0.600000
vt 0.400000 0.600000
vt 0.542064 0.511799
vt 0.540696 0.511604
vt 0.700000 0.600000
vt 0.800000 0.600000
vt 0.900000 0.600000
vt 1.000000 0.600000
vt 0.000000 0.700000
vt 0.100000 0.700000
vt 0.200000 0.700000
vt 0.300000 0.700000
vt 0.400000 0.700000
vt 0.500000 0.700000
vt 0.600000 0.700000
vt 0.700000 0.700000
vt 0.800000 0.700000
vt 0.900000 0.700000
vt 1.000000 0.700000
vt 0.000000 0.800000
vt 0.100000 0.800000
vt 0.200000 0.800000
vt 0.300000 0.800000
vt 0.400000 0.800000
vt 0.500000 0.800000
vt 0.600000 0.800000
vt 0.700000 0.800000
vt 0.800000 0.800000
vt 0.900000 0.800000
vt 1.000000 0.800000
vt 0.000000 0.900000
vt 0.100000 0.900000
vt 0.200000 0.900000
vt 0.300000 0.900000
vt 0.400000 0.900000
vt 0.500000 0.900000
vt 0.600000 0.900000
vt 0.700000 0.900000
vt 0.800000 0.900000
vt 0.900000 0.900000
vt 1.000000 0.900000
vt 0.000000 1.000000
vt 0.100000 1.000000
vt 0.200000 1.000000
vt 0.300000 1.000000
vt 0.400000 1.000000
vt 0.500000 1.000000
vt 0.600000 1.000000
vt 0.700000 1.000000
vt 0.800000 1.000000
vt 0.900000 1.000000
vt 1.000000 1.000000
vt 0.451172 0.351172
vt 0.458681 0.331076
vt 0.500000 0.352344
vt 0.452344 0.400000
vt 0.431076 0.358681
vt 0.548828 0.351172
vt 0.541319 0.331076
vt 0.568924 0.358681
vt 0.547656 0.400000
vt 0.451172 0.448828
vt 0.500000 0.447656
vt 0.458681 0.468924
vt 0.431076 0.441319
vt 0.548828 0.448828
vt 0.568924 0.441319
vt 0.541832 0.515865
vt 0.437500 0.337500
vt 0.425000 0.350000
vt 0.450000 0.325000
vt 0.453125 0.329687
vt 0.429688 0.353125
vt 0.525000 0.331250
vt 0.500000 0.334375
vt 0.525000 0.312500
vt 0.546875 0.329688
vt 0.525000 0.351563
vt 0.431250 0.425000
vt 0.412500 0.425000
vt 0.434375 0.400000
vt 0.451562 0.425000
vt 0.429688 0.446875
vt 0.525000 0.425000
vt 0.500000 0.425000
vt 0.525000 0.400000
vt 0.548437 0.425000
vt 0.525000 0.448438
vt 0.475000 0.331250
vt 0.475000 0.312500
vt 0.475000 0.351563
vt 0.475000 0.375000
vt 0.500000 0.375000
vt 0.475000 0.400000
vt 0.451562 0.375000
vt 0.431250 0.375000
vt 0.412500 0.375000
vt 0.562500 0.337500
vt 0.550000 0.325000
vt 0.575000 0.350000
vt 0.570313 0.353125
vt 0.568750 0.375000
vt 0.587500 0.375000
vt 0.565625 0.400000
vt 0.548437 0.375000
vt 0.525000 0.375000
vt 0.475000 0.425000
vt 0.475000 0.448438
vt 0.475000 0.468750
vt 0.500000 0.465625
vt 0.475000 0.487500
vt 0.453125 0.470313
vt 0.437500 0.462500
vt 0.450000 0.475000
vt 0.425000 0.450000
vt 0.568750 0.425000
vt 0.587500 0.425000
vt 0.570313 0.446875
vt 0.562500 0.462500
vt 0.575000 0.450000
vt 0.545613 0.511254
vt 0.546875 0.470312
vt 0.525000 0.468750
vt 0.525000 0.487500
vt 0.542064 0.512971
vt 0.512500 0.484375
vt 0.533160 0.478212
vt 0.545660 0.471962
vt 0.564062 0.476563
vt 0.589063 0.539063
vt 0.550000 0.600000
vt 0.500000 0.540625
vn 0.000000 1.000000 0.000000
vn 0.000000 1.000000 0.000000
vn 0.000000 1.000000 0.000000
vn 0.000000 1.000000 0.000000
vn 0.000000 1.000000 0.000000
vn 0.000000 1.000000 0.000000
vn 0.000000 1.000000 0.000000
vn 0.000000 1.000000 0.000000
vn 0.000000 1.000000 0.000000
vn 0.000000 1.000000 0.000000
vn 0.000000 1.000000 0.000000
vn 0.000000 1.000000 0.000000
vn 0.000000 1.000000 0.000000
vn 0.000000 1.000000 0.000000
vn 0.000000 1.000000 0.000000
vn 0.000000 1.000000 0.000000
vn 0.000000 1.000000 0.000000
vn 0.000000 1.000000 0.000000
vn 0.000000 1.000000 0.000000
vn 0.000000 1.000000 0.000000
vn 0.000000 1.000000 0.000000
vn 0.000000 1.000000 0.000000
vn 0.000000 1.000000 0.000000
vn 0.000000 1.000000 0.000000
vn 0.000000 1.000000 0.000000
vn 0.000000 1.000000 0.000000
vn 0.000000 1.000000 0.000000
vn -0.000000 1.000000 0.000000
vn 0.000000 1.000000 0.000000
vn 0.000000 1.000000 0.000000
vn 0.000000 1.000000 0.000000
vn 0.000000 1.000000 0.000000
vn 0.000000 1.000000 0.000000
vn 0.000000 1.000000 0.000000
vn 0.000000 1.000000 0.000000
vn 0.000000 1.000000 0.000000
vn -0.000000 1.000000 0.000000
vn -0.000000 1.000000 0.000000
vn -0.000000 1.000000 0.000000
vn 0.000000 1.000000 0.000000
vn 0.000000 1.000000 0.000000
vn 0.000000 1.000000 0.000000
vn 0.000000 1.000000 0.000000
vn -0.000000 1.000000 0.000000
vn -0.000000 1.000000 0.000000
vn -0.000000 1.000000 0.000000
vn 0.000000 1.000000 0.000000
vn 0.000000 1.000000 0.000000
vn 0.000000 1.000000 0.000000
vn 0.000000 1.000000 0.000000
vn 0.000000 1.000000 0.000000
vn 0.000000 1.000000 0.000000
vn 0.000000 1.000000 0.000000
vn -0.000000 1.000000 0.000000
vn -0.000000 1.000000 0.000000
vn -0.000000 1.000000 0.000000
vn -0.000000 1.000000 0.000000
vn -0.000000 1.000000 0.000000
vn -0.000000 1.000000 0.000000
vn -0.000000 1.000000 0.000000
vn -0.000000 1.000000 0.000000
vn 0.000000 1.000000 0.000000
vn 0.000000 1.000000 0.000000
vn -0.000000 1.000000 0.000000
vn 0.000000 1.000000 0.000000
vn 0.000000 1.000000 0.000000
vn 0.000000 1.000000 0.000000
vn 0.000000 1.000000 0.000000
vn 0.000000 1.000000 0.000000
vn 0.000000 1.000000 0.000000
vn 0.000000 1.000000 0.000000
vn 0.000000 1.000000 0.000000
vn 0.000000 1.000000 0.000000
vn 0.000000 1.000000 0.000000
vn 0.000000 1.000000 0.000000
vn 0.000000 1.000000 0.000000
vn 0.000000 1.000000 0.000000
vn 0.000000 1.000000 0.000000
vn 0.000000 1.000000 0.000000
vn -0.000000 1.000000 0.000000
vn 0.000000 1.000000 0.000000
vn 0.000000 1.000000 0.000000
vn -0.000000 1.000000 0.000000
vn 0.000000 1.000000 0.000000
vn -0.000000 1.000000 0.000000
vn -0.000000 1.000000 0.000000
vn -0.000000 1.000000 0.000000
vn 0.000000 1.000000 0.000000
vn 0.000000 1.000000 0.000000
vn 0.000000 1.000000 0.000000
vn 0.000000 1.000000 0.000000
vn 0.000000 1.000000 0.000000
vn 0.000000 1.000000 0.000000
vn 0.000000 1.000000 0.000000
vn -0.000000 1.000000 0.000000
vn -0.000000 1.000000 0.000000
vn -0.000000 1.000000 0.000000
vn -0.000000 1.000000 0.000000
vn -0.000000 1.000000 0.000000
vn -0.000000 1.000000 0.000000
vn -0.000000 1.000000 0.000000
vn -0.000000 1.000000 0.000000
vn 0.000000 1.000000 0.000000
vn -0.000000 1.000000 0.000000
vn 0.000000 1.000000 0.000000
vn 0.000000 1.000000 0.000000
vn 0.000000 1.000000 0.000000
vn 0.000000 1.000000 0.000000
vn 0.000000 1.000000 0.000000
vn 0.000000 1.000000 0.000000
vn 0.000000 1.000000 0.000000
vn 0.000000 1.000000 0.000000
vn 0.000000 1.000000 0.000000
vn 0.000000 1.000000 0.000000
vn 0.000000 1.000000 0.000000
vn 0.000000 1.000000 0.000000
vn 0.000000 1.000000 0.000000
vn 0.000000 1.000000 0.000000
vn 0.000000 1.000000 0.000000
vn 0.000000 1.000000 0.000000
vn 0.000000 1.000000 0.000000
vn 0.000000 1.000000 0.000000
vn 0.000000 1.000000 0.000000
vn 0.000000 1.000000 0.000000
vn 0.000000 1.000000 0.000000
vn 0.000000 1.000000 0.000000
vn 0.000000 1.000000 0.000000
vn 0.000000 1.000000 0.000000
vn 0.000000 1.000000 0.000000
vn 0.000000 1.000000 0.000000
vn 0.000000 1.000000 0.000000
vn 0.000000 1.000000 0.000000
vn 0.000000 1.000000 0.000000
vn 0.000000 1.000000 0.000000
vn 0.000000 1.000000 0.000000
vn 0.000000 1.000000 0.000000
vn 0.000000 1.000000 0.000000
vn 0.000000 1.000000 0.000000
vn 0.000000 1.000000 0.000000
vn 0.000000 1.000000 0.000000
vn 0.000000 1.000000 0.000000
vn 0.000000 1.000000 0.000000
vn 0.000000 1.000000 0.000000
vn 0.000000 1.000000 0.000000
vn 0.000000 1.000000 0.000000
vn 0.000000 1.000000 0.000000
vn 0.000000 1.000000 0.000000
vn 0.000000 1.000000 0.000000
vn 0.000000 1.000000 0.000000
vn 0.000000 1.000000 0.000000
vn 0.000000 1.000000 0.000000
vn 0.000000 1.000000 0.000000
vn 0.000000 1.000000 0.000000
vn 0.000000 1.000000 0.000000
vn -0.000000 1.000000 0.000000
vn 0.000000 1.000000 0.000000
vn 0.000000 1.000000 0.000000
vn 0.000000 1.000000 0.000000
vn 0.000000 1.000000 0.000000
vn 0.000000 1.000000 0.000000
vn 0.000000 1.000000 -0.000000
vn 0.000000 1.000000 0.000000
vn -0.000000 1.000000 0.000000
vn -0.000000 1.000000 0.000000
vn 0.000000 1.000000 0.000000
vn 0.000000 1.000000 0.000000
vn -0.000000 1.000000 0.000000
vn -0.000000 1.000000 0.000000
vn -0.000000 1.000000 0.000000
vn -0.000000 1.000000 0.000000
vn -0.000000 1.000000 0.000000
vn 0.000000 1.000000 -0.000000
vn 0.000000 1.000000 -0.000000
vn 0.000000 1.000000 -0.000000
vn 0.000000 1.000000 0.000000
vn 0.000000 1.000000 0.000000
vn -0.000000 1.000000 0.000000
vn 0.000000 1.000000 0.000000
vn 0.000000 1.000000 0.000000
vn 0.000000 1.000000 0.000000
vn -0.000000 1.000000 0.000000
vn -0.000000 1.000000 0.000000
vn 0.000000 1.000000 0.000000
vn 0.000000 1.000000 0.000000
vn -0.000000 1.000000 0.000000
vn -0.000000 1.000000 0.000000
vn 0.000000 1.000000 0.000000
vn 0.000000 1.000000 0.000000
vn -0.000000 1.000000 0.000000
vn 0.000000 1.000000 0.000000
vn -0.000000 1.000000 0.000000
vn -0.000000 1.000000 0.000000
vn 0.000000 1.000000 0.000000
vn -0.000000 1.000000 0.000000
vn -0.000000 1.000000 0.000000
vn -0.000000 1.000000 0.000000
vn -0.000000 1.000000 -0.000000
vn -0.000000 1.000000 -0.000000
vn 0.000000 1.000000 0.000000
vn -0.000000 1.000000 0.000000
vn 0.000000 1.000000 0.000000
s 1
g pPlane1
usemtl initialShadingGroup
f 1/1/1 2/2/2 13/13/3 12/12/4
f 2/2/2 3/3/5 14/14/6 13/13/3
f 3/3/5 4/4/7 15/15/8 14/14/6
f 4/4/7 5/5/9 16/16/10 15/15/8
f 5/5/9 6/6/11 17/17/12 16/16/10
f 6/6/11 7/7/13 18/18/14 17/17/12
f 7/7/13 8/8/15 19/19/16 18/18/14
f 8/8/15 9/9/17 20/20/18 19/19/16
f 9/9/17 10/10/19 21/21/20 20/20/18
f 10/10/19 11/11/21 22/22/22 21/21/20
f 12/12/4 13/13/3 24/24/23 23/23/24
f 13/13/3 14/14/6 25/25/25 24/24/23
f 14/14/6 15/15/8 26/26/26 25/25/25
f 15/15/8 16/16/10 27/27/27 26/26/26
f 16/16/10 17/17/12 28/28/28 27/27/27
f 17/17/12 18/18/14 29/29/29 28/28/28
f 18/18/14 19/19/16 30/30/30 29/29/29
f 19/19/16 20/20/18 31/31/31 30/30/30
f 20/20/18 21/21/20 32/32/32 31/31/31
f 21/21/20 22/22/22 33/33/33 32/32/32
f 23/23/24 24/24/23 35/35/34 34/34/35
f 24/24/23 25/25/25 36/36/36 35/35/34
f 25/25/25 26/26/26 37/37/37 36/36/36
f 26/26/26 27/27/27 38/38/38 37/37/37
f 27/27/27 28/28/28 39/39/39 159/159/40 123/123/41 140/140/42 38/38/38
f 28/28/28 29/29/29 40/40/43 168/168/44 128/128/45 145/145/46 39/39/39
f 29/29/29 30/30/30 41/41/47 40/40/43
f 30/30/30 31/31/31 42/42/48 41/41/47
f 31/31/31 32/32/32 43/43/49 42/42/48
f 32/32/32 33/33/33 44/44/50 43/43/49
f 34/34/35 35/35/34 46/46/51 45/45/52
f 35/35/34 36/36/36 47/47/53 46/46/51
f 36/36/36 37/37/37 48/48/54 47/47/53
f 37/37/37 38/38/38 139/139/55 126/126/56 166/166/57 49/49/58 48/48/54
f 142/142/59 126/126/56 139/139/55 138/138/60
f 147/147/61 124/124/62 144/144/63 143/143/64
f 40/40/43 41/41/47 52/52/65 51/51/66 172/172/67 129/129/68 169/169/69
f 41/41/47 42/42/48 53/53/70 52/52/65
f 42/42/48 43/43/49 54/54/71 53/53/70
f 43/43/49 44/44/50 55/55/72 54/54/71
f 45/45/52 46/46/51 57/57/73 56/56/74
f 46/46/51 47/47/53 58/58/75 57/57/73
f 47/47/53 48/48/54 59/59/76 58/58/75
f 48/48/54 49/49/58 149/149/77 134/134/78 184/184/79 60/60/80 59/59/76
f 152/152/81 134/134/78 149/149/77 148/148/82
f 51/51/66 52/52/65 63/63/83 62/62/84 189/189/85 136/136/86 186/186/87
f 52/52/65 53/53/70 64/64/88 63/63/83
f 53/53/70 54/54/71 65/65/89 64/64/88
f 54/54/71 55/55/72 66/66/90 65/65/89
f 56/56/74 57/57/73 68/68/91 67/67/92
f 57/57/73 58/58/75 69/69/93 68/68/91
f 58/58/75 59/59/76 70/70/94 69/69/93
f 59/59/76 60/60/80 71/71/95 70/70/94
f 60/60/80 183/183/96 133/133/97 180/180/98 61/61/99 201/201/100 72/72/101 71/71/95
f 201/201/100 61/61/99 195/195/102 194/194/103
f 62/62/84 63/63/83 74/74/104 73/73/105 199/199/106
f 63/63/83 64/64/88 75/75/107 74/74/104
f 64/64/88 65/65/89 76/76/108 75/75/107
f 65/65/89 66/66/90 77/77/109 76/76/108
f 67/67/92 68/68/91 79/79/110 78/78/111
f 68/68/91 69/69/93 80/80/112 79/79/110
f 69/69/93 70/70/94 81/81/113 80/80/112
f 70/70/94 71/71/95 82/82/114 81/81/113
f 71/71/95 72/72/101 83/83/115 82/82/114
f 72/72/101 200/200/116 73/73/105 84/84/117 83/83/115
f 73/73/105 74/74/104 85/85/118 84/84/117
f 74/74/104 75/75/107 86/86/119 85/85/118
f 75/75/107 76/76/108 87/87/120 86/86/119
f 76/76/108 77/77/109 88/88/121 87/87/120
f 78/78/111 79/79/110 90/90/122 89/89/123
f 79/79/110 80/80/112 91/91/124 90/90/122
f 80/80/112 81/81/113 92/92/125 91/91/124
f 81/81/113 82/82/114 93/93/126 92/92/125
f 82/82/114 83/83/115 94/94/127 93/93/126
f 83/83/115 84/84/117 95/95/128 94/94/127
f 84/84/117 85/85/118 96/96/129 95/95/128
f 85/85/118 86/86/119 97/97/130 96/96/129
f 86/86/119 87/87/120 98/98/131 97/97/130
f 87/87/120 88/88/121 99/99/132 98/98/131
f 89/89/123 90/90/122 101/101/133 100/100/134
f 90/90/122 91/91/124 102/102/135 101/101/133
f 91/91/124 92/92/125 103/103/136 102/102/135
f 92/92/125 93/93/126 104/104/137 103/103/136
f 93/93/126 94/94/127 105/105/138 104/104/137
f 94/94/127 95/95/128 106/106/139 105/105/138
f 95/95/128 96/96/129 107/107/140 106/106/139
f 96/96/129 97/97/130 108/108/141 107/107/140
f 97/97/130 98/98/131 109/109/142 108/108/141
f 98/98/131 99/99/132 110/110/143 109/109/142
f 100/100/134 101/101/133 112/112/144 111/111/145
f 101/101/133 102/102/135 113/113/146 112/112/144
f 102/102/135 103/103/136 114/114/147 113/113/146
f 103/103/136 104/104/137 115/115/148 114/114/147
f 104/104/137 105/105/138 116/116/149 115/115/148
f 105/105/138 106/106/139 117/117/150 116/116/149
f 106/106/139 107/107/140 118/118/151 117/117/150
f 107/107/140 108/108/141 119/119/152 118/118/151
f 108/108/141 109/109/142 120/120/153 119/119/152
f 109/109/142 110/110/143 121/121/154 120/120/153
f 141/141/155 123/123/41 159/159/40 158/158/156
f 160/160/157 124/124/62 162/162/158 161/161/159
f 164/164/160 125/125/161 150/150/162 165/165/163
f 146/146/164 128/128/45 168/168/44 167/167/165
f 170/170/166 129/129/68 172/172/67 171/171/167
f 174/174/168 130/130/169 155/155/170 175/175/171
f 151/151/172 125/125/161 163/163/173 176/176/174
f 177/177/175 132/132/176 179/179/177 178/178/178
f 181/181/179 133/133/97 183/183/96 182/182/180
f 156/156/181 130/130/169 173/173/182 185/185/183
f 187/187/184 136/136/86 189/189/85 188/188/185
f 191/191/186 137/137/187 196/196/188 193/193/189 192/192/190
f 139/139/55 38/38/38 140/140/42 138/138/60
f 140/140/42 123/123/41 141/141/155 138/138/60
f 141/141/155 122/122/191 142/142/59 138/138/60
f 144/144/63 39/39/39 145/145/46 143/143/64
f 145/145/46 128/128/45 146/146/164 143/143/64
f 146/146/164 127/127/192 147/147/61 143/143/64
f 149/149/77 49/49/58 150/150/162 148/148/82
f 150/150/162 125/125/161 151/151/172 148/148/82
f 151/151/172 131/131/193 152/152/81 148/148/82
f 155/155/170 130/130/169 156/156/181 153/153/194
f 156/156/181 135/135/195 157/157/196 153/153/194
f 159/159/40 39/39/39 144/144/63 158/158/156
f 144/144/63 124/124/62 160/160/157 158/158/156
f 160/160/157 122/122/191 141/141/155 158/158/156
f 162/162/158 50/50/197 163/163/173 161/161/159
f 163/163/173 125/125/161 164/164/160 161/161/159
f 164/164/160 122/122/191 160/160/157 161/161/159
f 150/150/162 49/49/58 166/166/57 165/165/163
f 166/166/57 126/126/56 142/142/59 165/165/163
f 142/142/59 122/122/191 164/164/160 165/165/163
f 168/168/44 40/40/43 169/169/69 167/167/165
f 169/169/69 129/129/68 170/170/166 167/167/165
f 170/170/166 127/127/192 146/146/164 167/167/165
f 172/172/67 51/51/66 173/173/182 171/171/167
f 173/173/182 130/130/169 174/174/168 171/171/167
f 174/174/168 127/127/192 170/170/166 171/171/167
f 147/147/61 127/127/192 174/174/168 175/175/171
f 163/163/173 50/50/197 154/154/198 176/176/174
f 154/154/198 132/132/176 177/177/175 176/176/174
f 177/177/175 131/131/193 151/151/172 176/176/174
f 179/179/177 61/61/99 180/180/98 178/178/178
f 180/180/98 133/133/97 181/181/179 178/178/178
f 181/181/179 131/131/193 177/177/175 178/178/178
f 183/183/96 60/60/80 184/184/79 182/182/180
f 184/184/79 134/134/78 152/152/81 182/182/180
f 152/152/81 131/131/193 181/181/179 182/182/180
f 173/173/182 51/51/66 186/186/87 185/185/183
f 186/186/87 136/136/86 187/187/184 185/185/183
f 187/187/184 135/135/195 156/156/181 185/185/183
f 189/189/85 62/62/84 198/198/199 190/190/200 188/188/185
f 190/190/200 197/197/201 137/137/187 191/191/186 188/188/185
f 191/191/186 135/135/195 187/187/184 188/188/185
f 157/157/196 135/135/195 191/191/186 192/192/190
f 195/195/102 193/193/189 196/196/188 194/194/103
f 196/196/188 137/137/187 197/197/201 194/194/103
f 197/197/201 190/190/200 198/198/199 194/194/103
f 198/198/199 62/62/84 199/199/106 194/194/103
f 199/199/106 73/73/105 200/200/116 194/194/103
f 200/200/116 72/72/101 201/201/100 194/194/103
