# Blender v2.80 (sub 45) OBJ File: 'RobinsHorror_V5.blend'
# www.blender.org
mtllib TrapNaarBoven.mtl
o trapNaarVerdieping1.002_Cube.005
v 3.467008 2.983244 20.742592
v 7.150639 -0.628940 19.389917
v 3.468991 2.983244 19.389843
v 7.619362 -0.628939 20.742592
v 7.619362 -0.391853 20.742592
v 7.619121 -0.628940 19.389923
v 7.619121 -0.391853 19.389923
v 7.150696 -0.628939 20.742592
v 7.359738 -0.391853 19.389919
v 7.359840 -0.391853 20.742592
v 7.100355 -0.131853 19.389914
v 7.359738 -0.131853 19.389919
v 7.359840 -0.131853 20.742592
v 7.100318 -0.131853 20.742592
v 6.840972 0.128147 19.389908
v 7.100355 0.128147 19.389914
v 7.100318 0.128147 20.742590
v 6.840796 0.128147 20.742590
v 6.581589 0.388147 19.389904
v 6.840972 0.388147 19.389908
v 6.840796 0.388147 20.742590
v 6.581273 0.388147 20.742590
v 6.322206 0.648147 19.389898
v 6.581589 0.648147 19.389904
v 6.581273 0.648147 20.742590
v 6.321751 0.648147 20.742590
v 6.062822 0.908146 19.389893
v 6.322206 0.908146 19.389898
v 6.321751 0.908147 20.742590
v 6.062229 0.908147 20.742590
v 5.803439 1.168146 19.389889
v 6.062822 1.168146 19.389893
v 6.062229 1.168147 20.742590
v 5.802707 1.168147 20.742590
v 5.544056 1.428146 19.389883
v 5.803439 1.428146 19.389889
v 5.802707 1.428147 20.742590
v 5.543185 1.428147 20.742590
v 5.284673 1.688146 19.389877
v 5.544056 1.688146 19.389883
v 5.543185 1.688147 20.742590
v 5.283663 1.688147 20.742590
v 5.025290 1.948146 19.389874
v 5.284673 1.948146 19.389877
v 5.283663 1.948147 20.742590
v 5.024141 1.948147 20.742590
v 4.765907 2.208146 19.389868
v 5.025290 2.208146 19.389874
v 5.024141 2.208147 20.742590
v 4.764619 2.208147 20.742590
v 4.506524 2.468146 19.389862
v 4.765907 2.468146 19.389868
v 4.764619 2.468146 20.742590
v 4.505096 2.468146 20.742590
v 4.247141 2.728146 19.389858
v 4.506524 2.728146 19.389862
v 4.505096 2.728146 20.742590
v 4.245574 2.728146 20.742590
v 3.987758 2.988146 19.389853
v 4.247141 2.988146 19.389858
v 4.245574 2.988146 20.742590
v 3.986052 2.988146 20.742590
v 3.467008 3.248147 20.742590
v 3.468991 3.248146 19.389843
v 3.987758 3.248146 19.389853
v 3.986052 3.248147 20.742590
vt 0.625000 0.500000
vt 0.375000 0.750000
vt 0.375000 0.500000
vt 0.640625 0.750000
vt 0.625000 0.750000
vt 0.354340 0.750000
vt 0.125000 0.500000
vt 0.354340 0.500000
vt 0.640625 0.500000
vt 0.656250 0.750000
vt 0.640625 0.750000
vt 0.656250 0.500000
vt 0.656250 0.750000
vt 0.640625 0.500000
vt 0.671875 0.500000
vt 0.656250 0.500000
vt 0.625000 0.390625
vt 0.625000 0.406250
vt 0.375000 0.479340
vt 0.687500 0.500000
vt 0.671875 0.750000
vt 0.671875 0.500000
vt 0.687500 0.750000
vt 0.687500 0.750000
vt 0.375000 0.770660
vt 0.625000 0.796875
vt 0.625000 0.812500
vt 0.671875 0.750000
vt 0.703125 0.500000
vt 0.687500 0.500000
vt 0.718750 0.500000
vt 0.703125 0.750000
vt 0.703125 0.500000
vt 0.718750 0.750000
vt 0.718750 0.750000
vt 0.703125 0.750000
vt 0.734375 0.500000
vt 0.718750 0.500000
vt 0.734375 0.750000
vt 0.734375 0.750000
vt 0.750000 0.500000
vt 0.734375 0.500000
vt 0.750000 0.750000
vt 0.750000 0.750000
vt 0.765625 0.500000
vt 0.750000 0.500000
vt 0.765625 0.750000
vt 0.765625 0.750000
vt 0.781250 0.500000
vt 0.765625 0.500000
vt 0.796875 0.500000
vt 0.781250 0.750000
vt 0.781250 0.500000
vt 0.796875 0.750000
vt 0.796875 0.750000
vt 0.781250 0.750000
vt 0.812500 0.500000
vt 0.796875 0.500000
vt 0.828125 0.500000
vt 0.812500 0.750000
vt 0.812500 0.500000
vt 0.828125 0.750000
vt 0.828125 0.750000
vt 0.812500 0.750000
vt 0.843750 0.500000
vt 0.843750 0.750000
vt 0.843750 0.750000
vt 0.828125 0.500000
vt 0.625000 0.000000
vt 0.375000 0.250000
vt 0.375000 0.000000
vt 0.875000 0.500000
vt 0.843750 0.500000
vt 0.125000 0.750000
vt 0.625000 0.484375
vt 0.625000 0.375000
vt 0.625000 0.250000
vt 0.625000 0.281250
vt 0.625000 0.281250
vt 0.625000 0.296875
vt 0.625000 0.296875
vt 0.625000 0.312500
vt 0.625000 0.312500
vt 0.625000 0.328125
vt 0.625000 0.328125
vt 0.625000 0.343750
vt 0.625000 0.343750
vt 0.625000 0.359375
vt 0.625000 0.359375
vt 0.625000 0.375000
vt 0.625000 0.390625
vt 0.625000 0.406250
vt 0.625000 0.421875
vt 0.625000 0.421875
vt 0.625000 0.437500
vt 0.625000 0.437500
vt 0.625000 0.453125
vt 0.625000 0.453125
vt 0.625000 0.468750
vt 0.625000 0.468750
vt 0.625000 0.484375
vt 0.625000 1.000000
vt 0.375000 1.000000
vt 0.625000 0.968750
vt 0.625000 0.875000
vt 0.625000 0.953125
vt 0.625000 0.765625
vt 0.625000 0.765625
vt 0.625000 0.781250
vt 0.625000 0.968750
vt 0.625000 0.953125
vt 0.625000 0.937500
vt 0.625000 0.937500
vt 0.625000 0.921875
vt 0.625000 0.921875
vt 0.625000 0.906250
vt 0.625000 0.906250
vt 0.625000 0.890625
vt 0.625000 0.890625
vt 0.625000 0.875000
vt 0.625000 0.859375
vt 0.625000 0.859375
vt 0.625000 0.843750
vt 0.625000 0.843750
vt 0.625000 0.828125
vt 0.625000 0.828125
vt 0.625000 0.812500
vt 0.625000 0.796875
vt 0.625000 0.781250
vt 0.875000 0.750000
vn 1.0000 0.0000 -0.0002
vn 0.0000 1.0000 -0.0000
vn -0.7003 -0.7138 0.0000
vn 1.0000 -0.0000 0.0000
vn 1.0000 0.0000 -0.0001
vn -0.0000 -0.0000 -1.0000
vn 1.0000 0.0000 0.0002
vn 0.0000 0.0000 1.0000
vn 1.0000 0.0000 0.0001
vn 1.0000 0.0000 0.0004
vn 1.0000 0.0000 0.0003
vn 1.0000 0.0000 0.0005
vn 1.0000 0.0000 0.0006
vn 1.0000 0.0000 0.0007
vn 1.0000 0.0000 0.0010
vn 1.0000 0.0000 0.0008
vn 1.0000 0.0000 0.0012
vn 1.0000 0.0000 0.0011
vn 1.0000 0.0000 0.0013
vn -1.0000 0.0000 -0.0015
vn -0.0000 -1.0000 0.0000
vn -0.7001 -0.7140 -0.0010
vn 0.0001 0.0000 -1.0000
usemtl None
s off
f 7/1/1 4/2/1 6/3/1
f 7/1/2 10/4/2 5/5/2
f 8/6/3 3/7/3 2/8/3
f 12/9/2 14/10/2 13/11/2
f 11/12/4 17/13/4 14/10/4
f 9/14/5 13/11/5 10/4/5
f 15/15/2 17/13/2 16/16/2
f 31/17/6 27/18/6 2/19/6
f 19/20/2 21/21/2 20/22/2
f 19/20/7 25/23/7 22/24/7
f 8/25/8 18/26/8 22/27/8
f 18/28/9 20/22/9 21/21/9
f 23/29/2 25/23/2 24/30/2
f 27/31/2 29/32/2 28/33/2
f 27/31/10 33/34/10 30/35/10
f 23/29/11 29/32/11 26/36/11
f 31/37/2 33/34/2 32/38/2
f 31/37/12 37/39/12 34/40/12
f 35/41/2 37/39/2 36/42/2
f 35/41/13 41/43/13 38/44/13
f 39/45/2 41/43/2 40/46/2
f 39/45/14 45/47/14 42/48/14
f 43/49/2 45/47/2 44/50/2
f 47/51/2 49/52/2 48/53/2
f 47/51/15 53/54/15 50/55/15
f 43/49/16 49/52/16 46/56/16
f 51/57/2 53/54/2 52/58/2
f 55/59/2 57/60/2 56/61/2
f 55/59/17 61/62/17 58/63/17
f 51/57/18 57/60/18 54/64/18
f 59/65/19 66/66/19 62/67/19
f 59/65/2 61/62/2 60/68/2
f 63/69/20 3/70/20 1/71/20
f 6/3/21 8/6/21 2/8/21
f 64/72/2 66/66/2 65/73/2
f 7/1/1 5/5/1 4/2/1
f 7/1/2 9/14/2 10/4/2
f 8/6/22 1/74/22 3/7/22
f 12/9/2 11/12/2 14/10/2
f 11/12/4 16/16/4 17/13/4
f 9/14/5 12/9/5 13/11/5
f 15/15/2 18/28/2 17/13/2
f 7/1/6 6/3/6 9/75/6
f 6/3/6 2/19/6 9/75/6
f 2/19/6 3/70/6 35/76/6
f 3/70/6 64/77/6 59/78/6
f 64/77/6 65/79/6 59/78/6
f 59/78/6 60/80/6 55/81/6
f 55/81/6 56/82/6 51/83/6
f 51/83/6 52/84/6 47/85/6
f 47/85/6 48/86/6 43/87/6
f 43/87/6 44/88/6 39/89/6
f 39/89/6 40/90/6 35/76/6
f 35/76/6 36/91/6 31/17/6
f 31/17/6 32/92/6 27/18/6
f 27/18/6 28/93/6 23/94/6
f 23/94/6 24/95/6 19/96/6
f 19/96/6 20/97/6 15/98/6
f 15/98/6 16/99/6 11/100/6
f 11/100/6 12/101/6 9/75/6
f 3/70/6 59/78/6 55/81/6
f 51/83/6 3/70/6 55/81/6
f 51/83/6 47/85/6 3/70/6
f 47/85/6 43/87/6 3/70/6
f 3/70/6 43/87/6 39/89/6
f 11/100/6 9/75/6 2/19/6
f 19/96/6 15/98/6 2/19/6
f 15/98/6 11/100/6 2/19/6
f 27/18/6 23/94/6 2/19/6
f 23/94/6 19/96/6 2/19/6
f 39/89/6 35/76/6 3/70/6
f 35/76/23 31/17/23 2/19/23
f 19/20/2 22/24/2 21/21/2
f 19/20/7 24/30/7 25/23/7
f 63/102/8 1/103/8 62/104/8
f 1/103/8 8/25/8 38/105/8
f 62/104/8 1/103/8 58/106/8
f 8/25/8 4/2/8 10/107/8
f 4/2/8 5/5/8 10/107/8
f 10/107/8 13/108/8 14/109/8
f 62/104/8 66/110/8 63/102/8
f 58/106/8 61/111/8 62/104/8
f 54/112/8 57/113/8 58/106/8
f 50/114/8 53/115/8 54/112/8
f 46/116/8 49/117/8 50/114/8
f 42/118/8 45/119/8 46/116/8
f 38/105/8 41/120/8 42/118/8
f 34/121/8 37/122/8 38/105/8
f 30/123/8 33/124/8 34/121/8
f 26/125/8 29/126/8 30/123/8
f 22/27/8 25/127/8 26/125/8
f 18/26/8 21/128/8 22/27/8
f 14/109/8 17/129/8 18/26/8
f 8/25/8 10/107/8 14/109/8
f 54/112/8 1/103/8 50/114/8
f 54/112/8 58/106/8 1/103/8
f 42/118/8 46/116/8 1/103/8
f 46/116/8 50/114/8 1/103/8
f 42/118/8 1/103/8 38/105/8
f 34/121/8 38/105/8 8/25/8
f 34/121/8 8/25/8 30/123/8
f 22/27/8 26/125/8 8/25/8
f 26/125/8 30/123/8 8/25/8
f 8/25/8 14/109/8 18/26/8
f 18/28/9 15/15/9 20/22/9
f 23/29/2 26/36/2 25/23/2
f 27/31/2 30/35/2 29/32/2
f 27/31/10 32/38/10 33/34/10
f 23/29/11 28/33/11 29/32/11
f 31/37/2 34/40/2 33/34/2
f 31/37/12 36/42/12 37/39/12
f 35/41/2 38/44/2 37/39/2
f 35/41/13 40/46/13 41/43/13
f 39/45/2 42/48/2 41/43/2
f 39/45/14 44/50/14 45/47/14
f 43/49/2 46/56/2 45/47/2
f 47/51/2 50/55/2 49/52/2
f 47/51/15 52/58/15 53/54/15
f 43/49/16 48/53/16 49/52/16
f 51/57/2 54/64/2 53/54/2
f 55/59/2 58/63/2 57/60/2
f 55/59/17 60/68/17 61/62/17
f 51/57/18 56/61/18 57/60/18
f 59/65/19 65/73/19 66/66/19
f 59/65/2 62/67/2 61/62/2
f 63/69/20 64/77/20 3/70/20
f 6/3/21 4/2/21 8/6/21
f 64/72/2 63/130/2 66/66/2
